<?xml version="1.0" standalone="no"?>
<!DOCTYPE svg PUBLIC "-//W3C//DTD SVG 20010904//EN"
 "http://www.w3.org/TR/2001/REC-SVG-20010904/DTD/svg10.dtd">
<svg version="1.0" xmlns="http://www.w3.org/2000/svg"
 width="450.000000pt" height="423.000000pt" viewBox="0 0 450.000000 423.000000"
 preserveAspectRatio="xMidYMid meet">

<g transform="translate(0.000000,423.000000) scale(0.100000,-0.100000)"
fill="#000000" stroke="none">
<path d="M3290 3929 c-50 -15 -100 -56 -116 -95 -18 -44 -18 -148 1 -210 28
-93 11 -99 -25 -8 -10 27 -19 42 -20 33 0 -29 22 -84 41 -101 11 -9 19 -22 20
-30 0 -7 4 -4 8 7 7 18 9 18 23 -9 9 -16 24 -30 34 -31 11 -2 28 -6 39 -10 11
-4 7 2 -10 13 -42 27 -61 50 -87 107 -30 68 -32 194 -3 244 58 99 238 104 309
8 18 -24 21 -42 21 -120 0 -80 -4 -99 -28 -149 -21 -42 -39 -64 -70 -83 -45
-27 -44 -34 2 -10 16 8 32 11 37 7 5 -4 6 -3 3 1 -4 5 3 19 15 32 22 23 56
115 56 149 0 10 6 16 13 13 13 -4 13 -12 4 -67 -5 -27 -2 -24 11 14 16 48 16
49 -6 64 -18 12 -22 24 -22 66 0 31 -7 65 -19 86 -33 63 -150 103 -231 79z"/>
<path d="M1130 3923 c-85 -31 -115 -67 -126 -153 -3 -30 -13 -62 -21 -72 -11
-13 -12 -26 -5 -60 l10 -43 2 50 2 50 18 -83 c32 -140 90 -232 158 -249 14 -3
44 0 66 8 69 24 123 125 153 284 l8 40 6 -45 6 -45 1 47 c1 26 -2 49 -7 52 -5
3 -12 33 -16 66 -8 72 -38 113 -100 141 -38 18 -122 24 -155 12z m162 -27 c66
-31 77 -63 74 -201 -2 -104 -5 -128 -28 -179 -35 -81 -71 -123 -114 -135 -71
-20 -133 29 -175 136 -29 74 -37 278 -13 324 36 71 165 98 256 55z"/>
<path d="M1042 3788 c-7 -7 -12 -16 -12 -22 0 -5 6 -2 13 8 12 17 16 17 51 2
48 -20 140 -21 195 -2 36 13 42 13 56 0 8 -9 15 -11 15 -6 0 5 -7 15 -15 22
-11 10 -24 9 -62 -4 -58 -20 -118 -20 -173 -1 -51 18 -53 18 -68 3z"/>
<path d="M3496 3459 c-5 -46 -4 -75 4 -83 8 -11 139 -57 306 -107 43 -13 75
-50 91 -106 12 -44 13 -45 9 -10 -6 51 -39 100 -78 120 -38 18 -133 50 -236
79 -85 24 -92 34 -84 121 2 31 2 57 0 57 -3 0 -9 -32 -12 -71z"/>
<path d="M3200 3435 c-6 -59 -2 -57 -189 -116 -142 -44 -193 -76 -206 -129 -4
-18 0 -15 14 11 22 40 54 65 97 75 69 16 270 86 282 98 8 8 12 31 10 62 l-4
49 -4 -50z"/>
<path d="M1038 3423 c-3 -45 -5 -47 -43 -59 -199 -61 -278 -89 -299 -105 -27
-21 -60 -84 -53 -102 2 -7 7 2 11 20 9 37 64 90 104 99 39 9 211 64 255 82 36
14 37 17 37 64 0 61 -8 63 -12 1z"/>
<path d="M1344 3420 l1 -55 125 -42 c69 -22 139 -44 157 -47 38 -8 89 -48 98
-77 4 -11 9 -18 12 -16 9 9 -26 64 -50 80 -21 14 -126 50 -292 101 -38 12 -40
15 -46 62 l-6 49 1 -55z"/>
<path d="M883 3223 c9 -2 23 -2 30 0 6 3 -1 5 -18 5 -16 0 -22 -2 -12 -5z"/>
<path d="M1488 3223 c6 -2 18 -2 25 0 6 3 1 5 -13 5 -14 0 -19 -2 -12 -5z"/>
<path d="M1012 3205 c48 -8 102 -21 120 -30 29 -14 31 -14 13 0 -26 21 -77 34
-155 40 -60 4 -58 4 22 -10z"/>
<path d="M1332 3208 c-87 -16 -53 -19 44 -4 49 8 71 14 49 14 -22 0 -64 -5
-93 -10z"/>
<path d="M3346 3158 c-5 -39 -5 -97 0 -135 l9 -68 3 68 c2 37 2 97 0 135 l-3
67 -9 -67z"/>
<path d="M1234 3168 l-19 -23 25 20 c14 11 27 21 29 22 2 2 0 3 -6 3 -5 0 -18
-10 -29 -22z"/>
<path d="M1742 3145 c0 -16 2 -22 5 -12 2 9 2 23 0 30 -3 6 -5 -1 -5 -18z"/>
<path d="M2792 3120 c0 -19 2 -27 5 -17 2 9 2 25 0 35 -3 9 -5 1 -5 -18z"/>
<path d="M2927 3060 c-8 -58 1 -126 27 -199 21 -59 21 -62 -18 -166 -19 -49
-42 -121 -50 -159 -9 -38 -34 -108 -55 -155 -42 -91 -71 -181 -71 -215 1 -23
82 192 134 354 19 58 46 130 60 160 14 30 26 64 27 75 1 36 30 -45 45 -125
l14 -75 -5 72 c-4 50 -18 107 -46 185 -33 90 -43 132 -48 208 -6 95 -6 95 -14
40z"/>
<path d="M3764 3028 c-1 -72 -8 -101 -48 -211 -29 -81 -46 -144 -45 -170 1
-41 1 -41 14 18 7 33 17 71 22 84 9 21 10 20 22 -20 7 -24 23 -64 36 -89 12
-25 28 -67 35 -93 7 -26 14 -46 16 -44 10 9 -19 121 -53 205 l-37 92 23 64
c26 75 37 167 25 214 -7 26 -9 16 -10 -50z"/>
<path d="M632 3070 c0 -14 2 -19 5 -12 2 6 2 18 0 25 -3 6 -5 1 -5 -13z"/>
<path d="M1751 3064 c0 -11 3 -14 6 -6 3 7 2 16 -1 19 -3 4 -6 -2 -5 -13z"/>
<path d="M3912 3060 c0 -14 2 -19 5 -12 2 6 2 18 0 25 -3 6 -5 1 -5 -13z"/>
<path d="M2781 3034 c0 -11 3 -14 6 -6 3 7 2 16 -1 19 -3 4 -6 -2 -5 -13z"/>
<path d="M612 2988 c-15 -61 -21 -108 -32 -234 -7 -90 -15 -127 -44 -195 -19
-46 -39 -103 -45 -126 -13 -48 -44 -284 -38 -290 2 -2 12 47 22 109 21 138 37
197 81 305 31 75 35 97 44 226 5 78 14 164 20 191 6 27 9 50 7 53 -3 2 -9 -16
-15 -39z"/>
<path d="M1761 3014 c0 -11 3 -14 6 -6 3 7 2 16 -1 19 -3 4 -6 -2 -5 -13z"/>
<path d="M3921 3020 c0 -8 4 -33 9 -55 5 -22 14 -101 19 -175 7 -101 18 -161
41 -238 16 -56 40 -157 51 -225 22 -134 35 -168 25 -67 -11 104 -34 220 -62
311 -15 49 -31 142 -40 224 -12 121 -41 270 -43 225z"/>
<path d="M810 3000 c0 -9 7 -26 16 -39 30 -42 0 -174 -76 -334 -22 -46 -35
-93 -41 -144 -11 -97 -5 -106 10 -16 7 42 29 104 58 163 l47 95 18 -60 c11
-33 25 -87 33 -120 12 -54 13 -56 14 -23 1 21 -13 80 -29 132 -26 82 -29 100
-20 138 5 24 10 63 10 87 0 42 1 43 18 28 9 -9 38 -25 62 -36 57 -26 205 -30
236 -6 10 8 14 15 7 15 -6 0 -15 -4 -18 -10 -9 -15 -113 -12 -180 5 -70 19
-118 52 -145 103 -10 20 -19 30 -20 22z"/>
<path d="M1549 2965 c-37 -60 -112 -95 -217 -102 -51 -4 -87 -1 -103 6 -23 11
-23 11 -5 -3 31 -25 178 -21 236 5 24 11 53 27 62 36 17 15 18 13 18 -33 0
-27 5 -65 10 -84 8 -29 5 -51 -20 -132 -16 -53 -29 -116 -29 -140 l1 -43 9 50
c5 28 19 83 32 124 l23 74 43 -88 c26 -54 50 -124 63 -184 24 -112 44 -167
101 -272 39 -72 41 -79 29 -111 -15 -42 -16 -78 -1 -78 5 0 7 5 4 10 -4 6 -3
24 0 41 5 23 17 35 48 50 38 18 26 21 -15 4 -14 -5 -18 -2 -18 14 0 11 -23 65
-51 118 -66 127 -78 162 -89 257 -7 59 -20 102 -54 175 -72 154 -92 253 -62
309 25 49 15 47 -15 -3z"/>
<path d="M2762 2967 c-7 -24 -17 -100 -23 -168 -7 -82 -23 -164 -45 -241 -18
-64 -40 -172 -49 -240 -21 -161 -22 -164 -57 -185 -22 -13 -37 -37 -58 -92
-16 -41 -25 -70 -21 -65 15 15 51 88 51 102 0 7 16 28 36 46 34 31 36 38 59
169 13 75 40 194 59 264 24 91 36 160 41 238 4 61 11 132 16 159 12 62 5 71
-9 13z"/>
<path d="M1776 2950 c3 -25 9 -104 14 -176 7 -119 11 -140 48 -230 43 -109 53
-147 78 -307 9 -59 19 -106 21 -103 7 6 -28 258 -42 306 -7 25 -27 81 -45 125
-27 66 -35 105 -46 225 -8 80 -18 159 -24 175 -9 26 -9 24 -4 -15z"/>
<path d="M3346 2838 c-8 -71 -6 -285 4 -323 4 -17 8 57 9 173 0 111 -1 202 -3
202 -2 0 -6 -24 -10 -52z"/>
<path d="M1188 2585 c-2 -108 0 -226 3 -263 3 -37 7 51 7 196 1 144 0 262 -3
262 -2 0 -5 -88 -7 -195z"/>
<path d="M3657 2518 c-3 -13 -9 -66 -13 -118 -6 -85 -3 -106 22 -199 33 -126
45 -118 14 9 -18 74 -21 111 -19 210 2 66 3 120 3 120 -1 0 -4 -10 -7 -22z"/>
<path d="M3041 2403 c-1 -83 -7 -150 -21 -209 -29 -123 -19 -128 13 -7 28 103
33 188 17 288 -6 40 -8 26 -9 -72z"/>
<path d="M881 2354 c-1 -105 -5 -131 -31 -209 -16 -49 -28 -90 -26 -92 2 -2
20 37 40 87 31 79 36 100 35 173 0 45 -4 100 -8 122 -7 30 -9 11 -10 -81z"/>
<path d="M3836 2440 c14 -52 113 -314 114 -300 1 33 -41 160 -80 240 -22 47
-37 74 -34 60z"/>
<path d="M1491 2328 c-1 -101 1 -110 35 -192 20 -48 38 -85 40 -83 2 2 -10 44
-27 93 -20 61 -33 121 -38 189 l-8 100 -2 -107z"/>
<path d="M690 2381 c0 -13 -12 -38 -78 -167 -23 -45 -42 -91 -42 -104 0 -17
-4 -21 -17 -15 -42 17 -54 14 -15 -4 41 -20 42 -21 43 -73 1 -49 1 -51 11 -24
8 21 7 39 -3 68 -13 39 -12 42 39 141 53 106 78 174 68 184 -3 4 -6 1 -6 -6z"/>
<path d="M3324 2290 c12 -18 16 -51 16 -126 0 -118 -11 -159 -51 -179 -57 -30
-163 -12 -211 35 -23 24 -28 37 -29 82 -1 44 -2 48 -9 26 -9 -29 -1 -80 18
-114 17 -32 80 -58 153 -62 63 -4 68 -3 103 29 l38 32 -7 -39 c-41 -239 -73
-359 -147 -544 -40 -101 -52 -143 -59 -220 -5 -52 -19 -128 -30 -169 -11 -40
-18 -75 -16 -78 8 -7 56 183 62 247 5 43 26 113 61 203 60 154 84 241 115 414
12 65 24 130 26 145 l5 28 31 -26 c29 -24 37 -26 103 -22 115 8 176 60 173
150 -1 30 -2 29 -14 -16 -17 -61 -45 -91 -100 -105 -104 -26 -164 -4 -186 67
-11 39 -9 203 4 237 5 12 3 11 -4 -3 l-12 -23 -25 28 c-19 23 -21 24 -8 3z"/>
<path d="M4071 2173 c0 -13 11 -31 28 -45 16 -13 43 -53 59 -90 17 -38 33 -68
37 -68 3 0 -2 17 -11 38 -9 20 -20 52 -26 70 -5 20 -22 41 -43 55 -19 12 -36
31 -38 42 -4 18 -4 18 -6 -2z"/>
<path d="M440 2116 c0 -8 -13 -23 -30 -33 -22 -13 -37 -36 -57 -88 -38 -95
-38 -95 -9 -50 14 22 28 52 31 66 3 15 22 41 41 58 29 27 45 61 29 61 -3 0 -5
-6 -5 -14z"/>
<path d="M2767 2062 c1 -37 6 -79 12 -92 6 -18 7 -1 4 55 -7 100 -20 130 -16
37z"/>
<path d="M1940 2106 c0 -8 11 -21 25 -30 13 -9 40 -49 59 -91 35 -76 60 -107
30 -37 -9 20 -23 56 -31 80 -8 23 -19 42 -24 42 -6 0 -21 11 -34 25 -15 15
-25 19 -25 11z"/>
<path d="M3925 2108 c-9 -31 -12 -160 -3 -144 10 18 21 156 12 156 -2 0 -6 -6
-9 -12z"/>
<path d="M4111 2005 c-2 -58 -19 -115 -48 -155 l-25 -35 35 37 c26 26 37 49
42 83 l7 46 22 -20 c36 -34 43 -24 9 12 -17 17 -33 41 -36 52 -3 11 -5 2 -6
-20z"/>
<path d="M517 2017 c-4 -10 -17 -22 -29 -27 -14 -5 -17 -9 -7 -9 23 -1 52 24
47 39 -3 11 -6 10 -11 -3z"/>
<path d="M1110 2022 c0 -15 40 -42 62 -42 12 0 18 -8 18 -23 0 -30 -119 -382
-160 -472 -59 -130 -70 -172 -70 -270 0 -69 -6 -115 -25 -179 -33 -114 -30
-121 7 -16 23 65 31 112 37 200 7 107 11 122 54 218 44 97 156 434 158 470 0
17 21 -49 75 -233 14 -49 51 -148 82 -220 53 -123 56 -136 63 -240 5 -79 14
-130 32 -180 14 -38 26 -65 26 -59 1 6 -6 31 -15 55 -10 27 -19 95 -23 174 -7
128 -8 132 -59 250 -63 148 -172 461 -172 496 0 21 6 28 29 32 17 4 35 16 42
29 l12 23 -23 -20 c-30 -27 -100 -27 -129 -1 -12 11 -21 14 -21 8z"/>
<path d="M2581 2019 c0 -9 -14 -31 -30 -48 -31 -33 -24 -44 8 -12 20 20 20 19
31 -34 9 -41 19 -61 46 -84 44 -39 57 -41 16 -3 -29 27 -55 95 -65 167 -2 17
-5 23 -6 14z"/>
<path d="M2947 1943 c-38 -127 -57 -243 -62 -363 l-4 -105 9 80 c14 126 40
272 66 374 13 52 22 96 20 98 -1 2 -15 -36 -29 -84z"/>
<path d="M3723 2016 c16 -42 58 -236 71 -331 23 -163 23 -165 25 -103 0 31 -8
107 -19 170 -19 111 -65 278 -76 278 -4 0 -4 -6 -1 -14z"/>
<path d="M1860 2012 c0 -15 38 -35 53 -28 8 3 7 5 -2 5 -8 1 -23 8 -33 18 -10
9 -18 11 -18 5z"/>
<path d="M767 1903 c-32 -105 -44 -184 -51 -318 -5 -109 -3 -100 20 80 8 66
26 165 40 219 13 54 23 100 21 102 -2 2 -16 -35 -30 -83z"/>
<path d="M389 1939 c-18 -22 -42 -45 -53 -49 -15 -6 -16 -9 -5 -9 9 -1 28 8
42 19 14 11 27 20 30 20 2 0 7 -22 10 -49 6 -48 34 -118 43 -108 2 2 -3 21
-12 42 -9 21 -17 69 -17 107 -1 37 -3 68 -4 68 -1 0 -16 -18 -34 -41z"/>
<path d="M1594 1965 c34 -129 76 -376 76 -444 0 -8 3 -12 6 -9 20 21 -43 403
-76 455 -10 16 -11 16 -6 -2z"/>
<path d="M1963 1916 c-1 -42 -10 -86 -26 -125 -14 -34 -23 -61 -21 -61 12 0
56 109 61 151 l6 48 29 -24 c16 -14 35 -25 41 -25 7 0 4 5 -5 10 -9 6 -31 28
-50 50 l-33 40 -2 -64z"/>
<path d="M2730 1944 c0 -6 7 -19 16 -30 14 -18 14 -18 3 6 -14 31 -19 36 -19
24z"/>
<path d="M3951 1923 c-10 -26 -10 -27 4 -9 8 11 15 23 15 28 0 15 -7 8 -19
-19z"/>
<path d="M2635 1916 c10 -49 62 -106 95 -106 31 0 47 14 29 26 -8 4 -9 3 -5
-4 5 -8 -1 -12 -18 -12 -26 0 -69 43 -93 95 l-14 30 6 -29z"/>
<path d="M2681 1911 c6 -16 20 -37 32 -48 21 -18 21 -18 -1 11 -12 16 -22 35
-22 42 0 7 -4 15 -10 19 -5 3 -5 -6 1 -24z"/>
<path d="M3365 1880 c9 -112 62 -315 120 -461 42 -106 58 -162 65 -223 6 -45
17 -100 25 -122 9 -21 13 -28 10 -14 -3 14 -10 67 -15 119 -12 114 -15 125
-75 276 -56 140 -66 174 -106 355 -24 110 -28 123 -24 70z"/>
<path d="M4003 1898 c-16 -27 -17 -36 -7 -27 15 13 38 59 32 65 -2 1 -13 -16
-25 -38z"/>
<path d="M4048 1901 c-24 -49 -54 -81 -79 -81 -11 0 -17 5 -14 10 4 7 -2 9
-19 4 -39 -9 -53 6 -25 27 13 10 19 19 12 19 -17 0 -45 -30 -40 -44 2 -6 27
-15 55 -20 45 -8 55 -6 72 9 29 26 62 82 58 99 -2 8 -11 -3 -20 -23z"/>
<path d="M2790 1924 c0 -3 10 -14 22 -23 28 -23 16 -46 -15 -30 -21 12 -21 11
-4 -8 9 -11 17 -22 17 -26 0 -3 -8 -8 -17 -10 -16 -4 -16 -5 -1 -6 9 0 23 13
32 31 21 41 20 43 -9 62 -14 9 -25 14 -25 10z"/>
<path d="M590 1908 c0 -9 5 -20 10 -23 13 -8 13 5 0 25 -8 13 -10 13 -10 -2z"/>
<path d="M1786 1904 c-4 -9 -4 -19 -1 -22 2 -3 7 3 11 12 4 9 4 19 1 22 -2 3
-7 -3 -11 -12z"/>
<path d="M3878 1909 c-20 -11 -24 -34 -6 -45 7 -5 8 -3 3 6 -5 8 1 19 16 31
25 20 16 25 -13 8z"/>
<path d="M560 1874 c0 -6 7 -19 16 -30 14 -18 14 -18 3 6 -14 31 -19 36 -19
24z"/>
<path d="M470 1861 c0 -24 33 -120 41 -116 4 3 12 -2 19 -10 14 -17 40 -20 40
-5 0 5 -6 7 -14 4 -15 -6 -51 47 -72 105 -7 20 -13 30 -14 22z"/>
<path d="M621 1855 c9 -11 19 -27 22 -35 5 -13 6 -13 6 1 1 9 -9 24 -21 35
-23 19 -23 19 -7 -1z"/>
<path d="M1752 1849 c-12 -11 -19 -25 -15 -32 5 -8 8 -7 11 3 3 8 11 23 20 33
21 23 11 22 -16 -4z"/>
<path d="M1897 1823 c-22 -62 -63 -105 -77 -83 -7 11 -10 11 -10 2 0 -25 32
-26 51 -1 17 22 19 23 19 4 1 -11 10 7 21 40 24 75 21 107 -4 38z"/>
<path d="M1801 1837 c-13 -21 -12 -21 5 -5 10 10 16 20 13 22 -3 3 -11 -5 -18
-17z"/>
<path d="M530 1837 c0 -24 74 -102 88 -93 17 10 15 41 -4 56 -13 12 -14 10 -3
-13 7 -15 9 -30 6 -34 -10 -10 -57 37 -73 72 -8 19 -13 24 -14 12z"/>
<path d="M1850 1837 c0 -7 -14 -30 -31 -52 l-31 -40 36 37 c31 32 47 68 31 68
-3 0 -5 -6 -5 -13z"/>
<path d="M1772 1798 c-15 -15 -16 -45 -2 -53 5 -3 7 0 4 9 -3 8 -1 24 6 35 12
24 10 27 -8 9z"/>
<path d="M713 1425 c0 -27 2 -38 4 -22 2 15 2 37 0 50 -2 12 -4 0 -4 -28z"/>
<path d="M1672 1400 c0 -19 2 -27 5 -17 2 9 2 25 0 35 -3 9 -5 1 -5 -18z"/>
<path d="M3827 1270 c3 -63 7 -225 9 -360 3 -135 8 -281 13 -325 8 -79 8 -78
9 50 1 170 -16 591 -28 680 -7 59 -8 52 -3 -45z"/>
<path d="M702 1334 c-1 -23 -7 -66 -13 -95 -7 -36 -7 -155 -2 -359 6 -264 9
-294 17 -223 5 49 5 159 0 270 -5 103 -5 229 -1 278 4 50 6 108 4 130 l-4 40
-1 -41z"/>
<path d="M1684 996 c-1 -371 9 -385 20 -31 5 141 3 228 -6 296 -12 91 -13 76
-14 -265z"/>
<path d="M2866 1288 c-7 -70 -17 -722 -11 -698 6 21 25 753 21 758 -2 2 -7
-25 -10 -60z"/>
<path d="M3591 1020 c0 -8 4 -24 9 -35 5 -13 9 -14 9 -5 0 8 -4 24 -9 35 -5
13 -9 14 -9 5z"/>
<path d="M3611 954 c-1 -6 13 -58 29 -115 18 -63 34 -149 40 -217 9 -102 8
-117 -10 -169 -27 -77 -26 -114 4 -142 19 -18 32 -22 72 -18 l49 3 -52 2 c-44
2 -55 6 -70 28 -14 23 -15 31 -4 67 37 123 38 132 29 232 -6 73 -19 134 -47
220 -22 66 -40 115 -40 109z"/>
<path d="M3048 832 c-31 -94 -39 -139 -44 -227 -6 -97 -4 -116 15 -165 39
-101 22 -139 -65 -142 -46 -1 -46 -2 -10 -5 60 -7 85 4 103 42 15 32 15 37 -7
95 -21 56 -22 72 -17 176 5 84 15 144 38 225 17 61 30 112 28 114 -2 2 -21
-49 -41 -113z"/>
<path d="M1481 925 c-1 -5 10 -46 24 -90 36 -113 57 -247 45 -280 -13 -34 -13
-92 0 -100 6 -3 10 -37 10 -75 0 -82 13 -95 88 -86 26 4 71 9 101 11 62 6 91
19 91 42 0 21 -37 80 -55 87 -8 3 -31 30 -51 61 -20 30 -38 55 -39 55 -14 0
18 -52 65 -105 58 -65 76 -100 59 -111 -5 -3 -9 -1 -9 3 0 5 -7 18 -15 29 -14
18 -14 17 -9 -13 8 -42 -8 -43 -24 -1 -6 17 -14 29 -18 26 -3 -4 -1 -15 4 -25
14 -26 -3 -56 -18 -33 -5 8 -10 20 -10 27 0 6 -4 15 -10 18 -6 4 -7 -6 -4 -25
9 -41 -22 -42 -31 -1 -5 22 -13 30 -37 35 -19 4 -36 2 -42 -5 -8 -9 -8 -10 1
-5 20 11 63 -12 63 -34 0 -19 -5 -21 -42 -18 l-43 3 -2 65 c-1 36 -5 82 -8
102 -4 21 -2 51 4 68 14 43 -8 167 -53 290 -19 52 -35 91 -35 85z"/>
<path d="M862 802 c-41 -124 -58 -223 -43 -250 14 -27 14 -89 0 -98 -8 -4 -9
-25 -5 -60 8 -72 2 -84 -45 -84 -32 0 -39 3 -39 20 0 11 12 26 28 35 l27 16
-30 -6 c-32 -7 -45 -20 -45 -47 0 -10 -7 -18 -16 -18 -13 0 -15 7 -12 32 5 28
4 29 -9 13 -7 -11 -13 -25 -13 -33 0 -7 -6 -12 -12 -9 -14 5 -15 21 -2 52 7
18 6 18 -9 6 -9 -7 -17 -22 -17 -32 0 -11 -5 -19 -11 -19 -8 0 -9 11 -5 33 5
30 5 31 -9 13 -22 -30 -19 -56 8 -58 23 -1 30 -2 129 -13 36 -4 66 -2 79 6 20
10 21 17 16 69 -5 42 -3 62 8 76 17 23 19 62 4 101 -13 36 4 156 38 266 13 44
23 81 21 83 -2 2 -18 -40 -36 -94z"/>
<path d="M2842 528 c-2 -30 -6 -38 -21 -38 -11 0 -23 -4 -26 -10 -9 -14 18
-12 39 3 13 9 16 22 13 47 l-4 35 -1 -37z"/>
<path d="M665 507 c-11 -18 -41 -54 -67 -80 -48 -48 -62 -87 -36 -103 8 -5 9
-2 5 10 -9 23 13 63 58 106 35 33 71 88 63 96 -2 2 -13 -11 -23 -29z"/>
<path d="M3875 480 c28 -12 37 -12 30 0 -3 6 -16 10 -28 9 -21 0 -21 -1 -2 -9z"/>
<path d="M2742 468 c-25 -25 0 -148 29 -148 5 0 3 10 -5 23 -25 39 -29 85 -12
112 17 26 9 34 -12 13z"/>
<path d="M3944 464 c22 -21 20 -67 -4 -117 l-21 -42 20 23 c12 13 26 41 32 63
10 32 9 42 -5 64 -9 14 -21 25 -27 25 -6 0 -3 -7 5 -16z"/>
</g>
</svg>
