<!-- Generator: Adobe Illustrator 19.0.0, SVG Export Plug-In  -->
<svg version="1.1"
	 xmlns="http://www.w3.org/2000/svg" xmlns:xlink="http://www.w3.org/1999/xlink" xmlns:a="http://ns.adobe.com/AdobeSVGViewerExtensions/3.0/"
	 x="0px" y="0px" width="328.351px" height="98.574px" viewBox="0 0 328.351 98.574"
	 style="enable-background:new 0 0 328.351 98.574;" xml:space="preserve">
<style type="text/css">
	.st0{fill:#3364AA;}
	.st1{fill:none;stroke:#3364AA;stroke-width:0.5;stroke-miterlimit:10;}
</style>
<defs>
</defs>
<g>
	<g>
		<path class="st0" d="M153.252,31.735h0.918v8.918h-0.918V31.735z"/>
		<path class="st0" d="M167.693,33.232l-0.711,0.655c-0.512-0.489-1.073-0.86-1.683-1.112s-1.204-0.379-1.783-0.379
			c-0.72,0-1.406,0.172-2.058,0.515c-0.652,0.344-1.156,0.81-1.514,1.397c-0.358,0.588-0.537,1.209-0.537,1.864
			c0,0.671,0.185,1.309,0.556,1.913c0.371,0.604,0.882,1.079,1.536,1.425c0.653,0.345,1.37,0.518,2.148,0.518
			c0.945,0,1.745-0.259,2.398-0.776c0.654-0.518,1.041-1.188,1.162-2.013h-2.929v-0.861h3.959c-0.008,1.378-0.43,2.472-1.265,3.283
			c-0.834,0.811-1.951,1.215-3.35,1.215c-1.698,0-3.043-0.562-4.034-1.685c-0.762-0.865-1.143-1.865-1.143-3.001
			c0-0.845,0.219-1.631,0.656-2.358s1.037-1.296,1.798-1.707c0.762-0.41,1.624-0.615,2.585-0.615c0.778,0,1.511,0.137,2.198,0.409
			C166.369,32.192,167.039,32.63,167.693,33.232z"/>
		<path class="st0" d="M172.543,31.735h0.918v8.057h3.534v0.861h-4.452V31.735z"/>
		<path class="st0" d="M181.014,31.735h5.264v0.873h-4.346v2.794h4.309v0.873h-4.309v3.504h4.309v0.873h-5.227V31.735z"/>
		<path class="st0" d="M189.474,38.992l0.78-0.455c0.55,0.982,1.185,1.473,1.904,1.473c0.309,0,0.598-0.07,0.868-0.209
			c0.271-0.14,0.477-0.327,0.618-0.561s0.213-0.483,0.213-0.746c0-0.299-0.104-0.592-0.313-0.879
			c-0.287-0.396-0.812-0.873-1.574-1.431c-0.766-0.562-1.242-0.968-1.43-1.218c-0.324-0.42-0.487-0.875-0.487-1.364
			c0-0.388,0.096-0.742,0.287-1.061s0.462-0.571,0.81-0.755c0.347-0.184,0.725-0.276,1.133-0.276c0.433,0,0.838,0.104,1.215,0.313
			c0.377,0.208,0.775,0.591,1.195,1.149l-0.749,0.551c-0.346-0.444-0.64-0.737-0.884-0.879c-0.243-0.142-0.509-0.212-0.796-0.212
			c-0.371,0-0.674,0.109-0.908,0.328c-0.235,0.218-0.354,0.487-0.354,0.806c0,0.194,0.042,0.382,0.125,0.564
			c0.083,0.182,0.235,0.38,0.456,0.594c0.121,0.113,0.516,0.41,1.187,0.891c0.795,0.57,1.34,1.077,1.636,1.522
			c0.296,0.444,0.443,0.891,0.443,1.34c0,0.646-0.253,1.208-0.759,1.685c-0.506,0.477-1.12,0.715-1.845,0.715
			c-0.559,0-1.063-0.145-1.518-0.433C190.275,40.155,189.857,39.671,189.474,38.992z"/>
		<path class="st0" d="M199.218,31.735h0.918v8.918h-0.918V31.735z"/>
		<path class="st0" d="M208.552,31.735l4.283,8.918h-0.991l-1.445-2.934h-3.957l-1.431,2.934h-1.024l4.34-8.918H208.552z
			 M208.436,33.629l-1.574,3.228h3.141L208.436,33.629z"/>
	</g>
	<g>
		<path class="st0" d="M117.058,62.448v-1.369c3.031-0.423,3.455-0.847,2.803-2.77c-0.685-1.891-1.564-4.27-2.607-7.007h-10.462
			c-0.815,2.184-1.467,4.041-2.086,5.932c-1.043,2.901-0.652,3.455,3.031,3.846v1.369H96.98v-1.369
			c3.162-0.489,3.846-0.814,5.574-5.052l10.234-24.868l1.695-0.424c3.129,8.441,6.258,16.916,9.484,25.292
			c1.564,4.205,2.249,4.726,5.411,5.052v1.369H117.058z M112.267,37.286h-0.098c-1.564,3.944-3.096,8.018-4.563,11.864h8.93
			L112.267,37.286z"/>
		<path class="st0" d="M130.853,62.448v-0.989c2.358-0.279,2.688-0.481,2.688-2.967V41.095c0-2.511-0.253-2.587-2.587-2.815v-0.913
			c2.029-0.229,4.463-0.862,5.833-1.293v22.418c0,2.511,0.33,2.739,2.79,2.967v0.989H130.853z"/>
		<path class="st0" d="M141.247,62.448v-0.989c2.358-0.228,2.638-0.456,2.638-3.043V50.96c0-2.333-0.127-2.511-2.359-2.891v-0.887
			c2.029-0.33,3.931-0.761,5.63-1.42v12.655c0,2.562,0.253,2.764,2.663,3.043v0.989H141.247z M143.226,40.689
			c0-1.192,0.964-2.08,2.08-2.08s1.978,0.888,1.978,2.08c0,1.065-0.862,2.003-2.029,2.003
			C144.189,42.692,143.226,41.754,143.226,40.689z"/>
		<path class="st0" d="M163.79,62.879c-0.71,0-1.521-0.33-1.927-0.735c-0.507-0.482-0.735-0.989-0.913-1.572
			c-1.521,0.963-3.297,2.308-4.362,2.308c-2.815,0-4.666-2.232-4.666-4.565c0-1.851,1.014-2.967,3.068-3.626
			c2.409-0.761,5.021-1.725,5.833-2.409v-0.659c0-2.663-1.217-4.083-3.018-4.083c-0.659,0-1.217,0.253-1.598,0.659
			c-0.482,0.482-0.812,1.319-1.141,2.511c-0.229,0.659-0.634,0.913-1.217,0.913c-0.735,0-1.725-0.761-1.725-1.648
			c0-0.558,0.482-1.015,1.217-1.522c1.09-0.786,3.652-2.206,5.757-2.612c1.192,0,2.282,0.279,3.145,0.938
			c1.395,1.167,1.801,2.713,1.801,4.691v6.67c0,1.648,0.659,2.206,1.344,2.206c0.431,0,0.938-0.177,1.344-0.406l0.38,0.989
			L163.79,62.879z M160.823,53.572c-0.761,0.38-2.283,1.09-3.069,1.445c-1.471,0.634-2.282,1.37-2.282,2.739
			c0,1.953,1.471,2.815,2.586,2.815c0.888,0,2.105-0.558,2.765-1.217V53.572z"/>
		<path class="st0" d="M178.976,62.448v-0.989c2.156-0.228,2.409-0.532,2.409-3.145v-6.036c0-2.587-1.039-4.134-3.348-4.134
			c-1.42,0-2.814,0.888-3.956,1.826v8.572c0,2.536,0.203,2.688,2.384,2.916v0.989h-8.369v-0.989
			c2.511-0.304,2.714-0.481,2.714-2.967v-7.456c0-2.409-0.254-2.562-2.232-2.917v-0.938c1.801-0.279,3.753-0.761,5.503-1.471v2.993
			c0.761-0.558,1.572-1.141,2.536-1.775c1.065-0.685,2.004-1.09,3.119-1.09c2.993,0,4.895,2.105,4.895,5.782v6.923
			c0,2.536,0.229,2.637,2.409,2.916v0.989H178.976z"/>
		<path class="st0" d="M203.747,57.655c-0.558,1.572-1.166,3.398-1.774,4.793h-12.706l-0.278-0.583
			c3.246-4.691,6.264-9.307,9.383-14.277c-1.268,0-2.409,0-3.195,0c-2.714,0-3.322,0.558-4.413,2.663l-0.558,1.09l-0.964-0.406
			c0.482-1.572,1.04-3.88,1.37-5.478h0.761c0.228,0.583,0.761,0.812,2.155,0.812h8.851l0.279,0.558
			c-3.068,4.717-6.062,9.383-9.13,14.303h3.576c2.84,0,3.702-0.761,5.173-3.068l0.508-0.888L203.747,57.655z"/>
		<path class="st0" d="M217.235,62.879c-0.71,0-1.521-0.33-1.928-0.735c-0.507-0.482-0.735-0.989-0.913-1.572
			c-1.521,0.963-3.297,2.308-4.361,2.308c-2.815,0-4.667-2.232-4.667-4.565c0-1.851,1.015-2.967,3.069-3.626
			c2.409-0.761,5.021-1.725,5.832-2.409v-0.659c0-2.663-1.217-4.083-3.018-4.083c-0.659,0-1.217,0.253-1.598,0.659
			c-0.481,0.482-0.812,1.319-1.142,2.511c-0.228,0.659-0.634,0.913-1.217,0.913c-0.735,0-1.725-0.761-1.725-1.648
			c0-0.558,0.481-1.015,1.218-1.522c1.09-0.786,3.651-2.206,5.756-2.612c1.192,0,2.283,0.279,3.146,0.938
			c1.395,1.167,1.8,2.713,1.8,4.691v6.67c0,1.648,0.66,2.206,1.345,2.206c0.431,0,0.938-0.177,1.344-0.406l0.381,0.989
			L217.235,62.879z M214.267,53.572c-0.761,0.38-2.282,1.09-3.068,1.445c-1.471,0.634-2.282,1.37-2.282,2.739
			c0,1.953,1.471,2.815,2.587,2.815c0.888,0,2.104-0.558,2.764-1.217V53.572z"/>
		<path class="st0" d="M266.658,32.886c-2.705,0.13-3.879,0.685-4.107,2.868c-0.162,1.532-0.293,3.683-0.293,8.115v19.067h-1.564
			L239.28,38.101h-0.065l-0.032,11.636c0,4.4,0.195,6.648,0.325,8.018c0.229,2.477,1.337,3.063,4.693,3.324v1.369h-11.668v-1.369
			c2.803-0.195,4.042-0.814,4.27-3.194c0.195-1.5,0.392-3.748,0.392-8.148V39.502c0-3.487-0.163-3.748-1.043-4.889
			c-1.011-1.174-2.054-1.564-4.335-1.728v-1.434h7.496l20.762,23.532h0.131V43.87c0-4.433-0.196-6.583-0.326-7.952
			c-0.229-2.249-1.369-2.868-4.856-3.031v-1.434h11.636V32.886z"/>
		<path class="st0" d="M277.694,45.837c4.818,0,8.368,3.728,8.368,8.217c0,5.985-4.564,8.825-8.394,8.825
			c-5.401,0-8.547-4.058-8.547-8.141c0-6.061,4.971-8.901,8.547-8.901H277.694z M277.211,47.08c-2.181,0-4.209,2.206-4.209,6.391
			c0,4.692,2.028,8.115,5.071,8.115c2.182,0,4.134-1.471,4.134-6.669c0-4.438-1.775-7.836-4.945-7.836H277.211z"/>
		<path class="st0" d="M294.121,49.844c1.243-2.029,2.79-4.007,4.54-4.007c1.369,0,2.282,0.989,2.282,1.902
			c0,0.862-0.508,1.623-1.319,2.003c-0.456,0.178-0.786,0.102-1.014-0.101c-0.584-0.533-1.015-0.761-1.648-0.761
			c-0.964,0-2.105,1.091-2.917,3.069v6.619c0,2.435,0.178,2.663,3.119,2.891v0.989h-9.003v-0.989
			c2.283-0.228,2.612-0.456,2.612-2.891v-7.685c0-2.358-0.202-2.51-2.308-2.815v-0.836c1.877-0.305,3.652-0.736,5.579-1.522v4.134
			H294.121z"/>
		<path class="st0" d="M310.475,62.372c-0.685,0.38-1.268,0.507-1.598,0.507c-2.511,0-3.905-1.42-3.905-4.413V47.815h-2.562
			l-0.178-0.431l1.04-1.116h1.699V43.58l2.764-2.586l0.508,0.102v5.173h4.21c0.38,0.406,0.253,1.217-0.254,1.547h-3.956v9.358
			c0,2.993,1.293,3.5,2.231,3.5c0.888,0,1.725-0.355,2.282-0.634l0.33,1.014L310.475,62.372z"/>
		<path class="st0" d="M328.199,59.151c-2.435,3.069-5.147,3.728-6.365,3.728c-4.641,0-7.38-3.728-7.38-7.862
			c0-2.46,0.888-4.691,2.409-6.34c1.623-1.775,3.678-2.84,5.681-2.84h0.025c3.221,0,5.782,2.764,5.782,5.706
			c0,0.71-0.203,1.04-0.888,1.192c-0.685,0.102-5.401,0.482-9.764,0.634c0.076,4.793,2.892,6.822,5.504,6.822
			c1.547,0,2.992-0.583,4.361-1.852L328.199,59.151z M321.656,47.232c-1.623,0-3.246,1.445-3.778,4.539c2.004,0,4.007,0,6.112-0.076
			c0.659-0.025,0.887-0.228,0.887-0.71c0-1.953-1.217-3.753-3.195-3.753H321.656z"/>
	</g>
	<g>
		<g>
			<path class="st0" d="M153.769,70.327h0.691v6.251h2.663v0.668h-3.354V70.327z"/>
			<path class="st0" d="M160.169,70.327h0.691v4.177c0,0.496,0.009,0.804,0.028,0.927c0.035,0.272,0.115,0.5,0.24,0.684
				s0.318,0.337,0.579,0.461c0.26,0.124,0.522,0.186,0.785,0.186c0.229,0,0.449-0.049,0.659-0.146s0.386-0.232,0.527-0.404
				s0.245-0.381,0.311-0.626c0.047-0.175,0.07-0.536,0.07-1.082v-4.177h0.691v4.177c0,0.618-0.06,1.117-0.181,1.498
				c-0.121,0.381-0.362,0.712-0.725,0.995s-0.8,0.423-1.315,0.423c-0.558,0-1.036-0.133-1.435-0.399
				c-0.398-0.267-0.665-0.62-0.799-1.059c-0.085-0.27-0.127-0.756-0.127-1.458V70.327z"/>
			<path class="st0" d="M168.112,70.995v-0.668h3.649l-2.89,6.242h2.745v0.677h-3.815l2.916-6.251H168.112z"/>
			<path class="st0" d="M182.351,70.327l3.227,6.919h-0.747l-1.088-2.277h-2.98l-1.078,2.277h-0.771l3.27-6.919H182.351z
				 M182.264,71.797l-1.186,2.505h2.365L182.264,71.797z"/>
			<path class="st0" d="M193.171,70.327h0.691v6.251h2.662v0.668h-3.354V70.327z"/>
			<path class="st0" d="M202.374,70.327l3.227,6.919h-0.747l-1.088-2.277h-2.98l-1.078,2.277h-0.771l3.27-6.919H202.374z
				 M202.288,71.797l-1.186,2.505h2.365L202.288,71.797z"/>
			<path class="st0" d="M207.885,75.958l0.588-0.353c0.414,0.762,0.893,1.143,1.435,1.143c0.232,0,0.45-0.054,0.654-0.162
				c0.203-0.108,0.358-0.253,0.466-0.436c0.106-0.182,0.159-0.375,0.159-0.578c0-0.232-0.078-0.459-0.234-0.682
				c-0.217-0.308-0.612-0.678-1.186-1.11c-0.577-0.436-0.937-0.751-1.077-0.945c-0.245-0.326-0.367-0.679-0.367-1.059
				c0-0.301,0.072-0.575,0.217-0.823c0.144-0.248,0.347-0.443,0.608-0.586s0.547-0.214,0.854-0.214c0.325,0,0.631,0.081,0.914,0.242
				c0.284,0.162,0.584,0.458,0.901,0.892l-0.564,0.428c-0.261-0.345-0.482-0.572-0.666-0.682c-0.184-0.109-0.383-0.165-0.6-0.165
				c-0.279,0-0.507,0.085-0.685,0.254c-0.177,0.169-0.266,0.378-0.266,0.626c0,0.15,0.031,0.296,0.094,0.437
				c0.063,0.141,0.178,0.295,0.344,0.461c0.091,0.087,0.389,0.318,0.894,0.691c0.6,0.442,1.01,0.835,1.232,1.181
				c0.223,0.345,0.334,0.691,0.334,1.04c0,0.501-0.19,0.938-0.571,1.308s-0.845,0.555-1.39,0.555c-0.421,0-0.802-0.112-1.144-0.336
				S208.173,76.484,207.885,75.958z"/>
			<path class="st0" d="M219.923,77.247v-6.919h0.15l4.605,5.304v-5.304h0.682v6.919h-0.155l-4.567-5.239v5.239H219.923z"/>
			<path class="st0" d="M231.798,70.327l3.227,6.919h-0.747l-1.088-2.277h-2.98l-1.078,2.277h-0.771l3.27-6.919H231.798z
				 M231.711,71.797l-1.186,2.505h2.365L231.711,71.797z"/>
			<path class="st0" d="M244.468,71.611l-0.546,0.419c-0.301-0.392-0.662-0.689-1.084-0.892s-0.885-0.303-1.39-0.303
				c-0.552,0-1.063,0.132-1.534,0.397c-0.47,0.265-0.834,0.621-1.093,1.068c-0.259,0.447-0.389,0.949-0.389,1.507
				c0,0.844,0.289,1.547,0.868,2.112c0.578,0.564,1.309,0.847,2.189,0.847c0.969,0,1.779-0.379,2.432-1.138l0.546,0.414
				c-0.345,0.439-0.775,0.778-1.291,1.018c-0.516,0.24-1.092,0.36-1.729,0.36c-1.211,0-2.166-0.403-2.865-1.208
				c-0.586-0.681-0.879-1.502-0.879-2.465c0-1.013,0.354-1.865,1.065-2.557c0.71-0.691,1.6-1.037,2.669-1.037
				c0.646,0,1.229,0.128,1.75,0.383S244.136,71.15,244.468,71.611z"/>
			<path class="st0" d="M247.684,70.327h0.691v6.919h-0.691V70.327z"/>
			<path class="st0" d="M255.182,70.153c1.048,0,1.926,0.35,2.631,1.049c0.706,0.699,1.06,1.56,1.06,2.583
				c0,1.013-0.353,1.872-1.057,2.578c-0.705,0.706-1.563,1.058-2.577,1.058c-1.026,0-1.893-0.351-2.598-1.053
				c-0.706-0.703-1.06-1.552-1.06-2.55c0-0.665,0.161-1.281,0.482-1.849c0.321-0.567,0.76-1.012,1.315-1.333
				C253.935,70.314,254.536,70.153,255.182,70.153z M255.213,70.826c-0.513,0-0.998,0.134-1.456,0.4
				c-0.459,0.267-0.816,0.626-1.074,1.078c-0.258,0.452-0.387,0.956-0.387,1.511c0,0.822,0.285,1.517,0.855,2.083
				s1.257,0.85,2.062,0.85c0.537,0,1.034-0.13,1.49-0.391c0.457-0.261,0.813-0.617,1.07-1.069c0.256-0.452,0.384-0.954,0.384-1.506
				c0-0.549-0.128-1.046-0.384-1.49c-0.257-0.444-0.617-0.8-1.082-1.066S255.734,70.826,255.213,70.826z"/>
			<path class="st0" d="M262.192,77.247v-6.919h0.15l4.605,5.304v-5.304h0.682v6.919h-0.155l-4.567-5.239v5.239H262.192z"/>
			<path class="st0" d="M271.245,70.327h3.965v0.678h-3.273v2.168h3.246v0.678h-3.246v2.719h3.246v0.677h-3.938V70.327z"/>
			<path class="st0" d="M277.617,75.958l0.588-0.353c0.414,0.762,0.893,1.143,1.435,1.143c0.232,0,0.45-0.054,0.654-0.162
				c0.203-0.108,0.358-0.253,0.466-0.436c0.106-0.182,0.159-0.375,0.159-0.578c0-0.232-0.078-0.459-0.234-0.682
				c-0.217-0.308-0.612-0.678-1.186-1.11c-0.577-0.436-0.937-0.751-1.077-0.945c-0.245-0.326-0.367-0.679-0.367-1.059
				c0-0.301,0.072-0.575,0.217-0.823c0.144-0.248,0.347-0.443,0.608-0.586s0.547-0.214,0.854-0.214c0.325,0,0.631,0.081,0.914,0.242
				c0.284,0.162,0.584,0.458,0.901,0.892l-0.564,0.428c-0.261-0.345-0.482-0.572-0.666-0.682c-0.184-0.109-0.383-0.165-0.6-0.165
				c-0.279,0-0.507,0.085-0.685,0.254c-0.177,0.169-0.266,0.378-0.266,0.626c0,0.15,0.031,0.296,0.094,0.437
				c0.063,0.141,0.178,0.295,0.344,0.461c0.091,0.087,0.389,0.318,0.894,0.691c0.6,0.442,1.01,0.835,1.232,1.181
				c0.223,0.345,0.334,0.691,0.334,1.04c0,0.501-0.19,0.938-0.571,1.308s-0.845,0.555-1.39,0.555c-0.421,0-0.802-0.112-1.144-0.336
				S277.905,76.484,277.617,75.958z"/>
		</g>
		<line class="st1" x1="285.292" y1="74.816" x2="304.404" y2="74.816"/>
		<line class="st1" x1="130.277" y1="74.816" x2="149.389" y2="74.816"/>
	</g>
	<g>
		<path class="st0" d="M55.136,3.165c0,0-36.122,12.703-34.777,53.213c0,0-3.366,23.294,21.535,39.163
			c0,0-29.107-19.753-16.825-57.9C25.069,37.641,28.33,15.616,55.136,3.165z"/>
		<path class="st0" d="M81.105,88.967c-7.721,4.801-16.905,7.584-26.762,7.584c-27.411,0-49.632-21.54-49.632-48.106
			c0-26.57,22.222-48.107,49.632-48.107l1.681-0.093C54.338,0.084,52.627,0,50.898,0C22.788,0,0,22.068,0,49.289
			c0,27.219,22.788,49.285,50.898,49.285c11.24,0,21.627-3.529,30.05-9.503L81.105,88.967z"/>
		<path class="st0" d="M12.406,47.097c0.545-22.11,17.906-41.069,41.185-43.675l1.545-0.257c-1.577,0.024-3.164,0.123-4.764,0.304
			c-24.36,2.726-42.4,22.894-42.253,46.135L12.406,47.097z"/>
		<path class="st0" d="M22.716,10.06c0,0-0.311,5.727,22.31,8.221C45.027,18.281,24.586,19.844,22.716,10.06z"/>
		<path class="st0" d="M9.642,25.881c0,0,3.427,16.135,35.698,14.885C45.34,40.766,8.608,44.201,9.642,25.881z"/>
		<path class="st0" d="M11.585,73.316c0,0,9.64,9.068,23.575,9.571C35.16,82.888,22.873,86.744,11.585,73.316z"/>
		<path class="st0" d="M80.622,55.902c13.921-1.957,12.808-10.196,12.808-10.196c0-5.867-4.872-12.569-4.872-12.569H63.012
			c0,0-4.874,6.703-4.874,12.569c0,0-1.113,8.239,12.808,10.196c0,0,2.925,0.487,2.925,3.212v7.541h-7.172v4.051h18.169v-4.051
			h-7.172v-7.541C77.696,56.389,80.622,55.902,80.622,55.902z M75.958,52.59h-0.396c0.068,0,0.132-0.003,0.198-0.003
			c-13.88-0.073-13.727-7.583-13.727-7.583c0-4.469,3.345-7.666,3.345-7.666h8.034h4.697h8.042c0,0,3.34,3.196,3.34,7.666
			c0,0,0.151,7.51-13.731,7.583C75.832,52.588,75.892,52.59,75.958,52.59z"/>
		<path class="st0" d="M58.889,69.039l-8.748-14.686l-9.089,15.022L30.116,54.523l2.862,31.707h34.154l2.357-31.539L58.889,69.039z
			 M63.337,82.25H36.698l-0.836-13.593l5.757,7.448l8.444-14.061L58.42,75.92l5.659-6.984L63.337,82.25z"/>
		<path class="st0" d="M56.197,19.581V6.922H43.579V19.75H31.971v11.647h12.28v35.616l5.385-7.597h2.523l4.038,7.092V30.89h11.61
			V19.581H56.197z M64.078,27.411H52.289v30.911h-4.64V27.411H35.956v-3.913h11.508l0.092-12.755h4.642v12.291h11.88V27.411z"/>
		<path class="st0" d="M42.915,34.3l-1.762-2.701l-25.894,9.033C4.864,44.727,5.978,52.178,5.978,52.178
			c0,8.472,10.3,10.519,10.3,10.519L15.352,70.8l24.595,0.186l-2.6-24.582C37.347,40.35,42.915,34.3,42.915,34.3z M16.371,57.951
			c0,0-6.497,0-6.123-5.308c0,0-0.37-4.098,6.866-8.287L16.371,57.951z M33.169,45.939l2.138,20.484l-15.501-0.187l1.577-23.462
			l14.291-5.028C33.077,41.56,33.169,45.939,33.169,45.939z"/>
	</g>
</g>
</svg>