<?xml version="1.0" standalone="no"?>
<!DOCTYPE svg PUBLIC "-//W3C//DTD SVG 20010904//EN"
 "http://www.w3.org/TR/2001/REC-SVG-20010904/DTD/svg10.dtd">
<svg version="1.0" xmlns="http://www.w3.org/2000/svg"
 width="1200.000000pt" height="760.000000pt" viewBox="0 0 1200.000000 760.000000"
 preserveAspectRatio="xMidYMid meet">

<g transform="translate(0.000000,760.000000) scale(0.100000,-0.100000)"
fill="#000000" stroke="none">

<g id="landmarks-countries">

<g id="z8">
<path d="M350 6520 l0 -440 2730 0 2730 0 0 440 0 440 -2730 0 -2730 0 0 -440z"/>
</g>
<g id="z1">
<path d="M6430 6520 l0 -440 2730 0 2730 0 0 440 0 440 -2730 0 -2730 0 0
-440z"/>
</g>
<g id="7d">
<path d="M360 5360 l0 -430 685 0 685 0 0 430 0 430 -685 0 -685 0 0 -430z"/>
</g>
<g id="7c">
<path d="M1740 5360 l0 -430 685 0 685 0 0 430 0 430 -685 0 -685 0 0 -430z"/>
</g>
<g id="7b">
<path d="M3120 5360 l0 -430 685 0 685 0 0 430 0 430 -685 0 -685 0 0 -430z"/>
</g>
<g id="7a">
<path d="M4500 5360 l0 -430 685 0 685 0 0 430 0 430 -685 0 -685 0 0 -430z"/>
</g>
<g id="2a">
<path d="M6370 5360 l0 -430 685 0 685 0 0 430 0 430 -685 0 -685 0 0 -430z"/>
</g>
<g id="2b">
<path d="M7750 5360 l0 -430 685 0 685 0 0 430 0 430 -685 0 -685 0 0 -430z"/>
</g>
<g id="2c">
<path d="M9130 5360 l0 -430 685 0 685 0 0 430 0 430 -685 0 -685 0 0 -430z"/>
</g>
<g id="2d">
<path d="M10510 5360 l0 -430 685 0 685 0 0 430 0 430 -685 0 -685 0 0 -430z"/>
</g>
<g id="hall">
<path d="M4680 4430 l0 -260 580 0 580 0 0 260 0 260 -580 0 -580 0 0 -260z"/>
</g>
<g id="office">
<path d="M6390 4420 l0 -260 580 0 580 0 0 260 0 260 -580 0 -580 0 0 -260z"/>
</g>
<g id="z6">
<path d="M350 3550 l0 -440 2730 0 2730 0 0 440 0 440 -2730 0 -2730 0 0 -440z"/>
</g>
<g id="3a">
<path d="M6370 3560 l0 -430 685 0 685 0 0 430 0 430 -685 0 -685 0 0 -430z"/>
</g>
<g id="3b">
<path d="M7750 3560 l0 -430 685 0 685 0 0 430 0 430 -685 0 -685 0 0 -430z"/>
</g>
<g id="3c">
<path d="M9130 3560 l0 -430 685 0 685 0 0 430 0 430 -685 0 -685 0 0 -430z"/>
</g>
<g id="3d">
<path d="M10510 3560 l0 -430 685 0 685 0 0 430 0 430 -685 0 -685 0 0 -430z"/>
</g>
<g id="z5">
<path d="M350 2410 l0 -440 2730 0 2730 0 0 440 0 440 -2730 0 -2730 0 0 -440z"/>
</g>
<g id="z4">
<path d="M6420 2410 l0 -440 2730 0 2730 0 0 440 0 440 -2730 0 -2730 0 0
-440z"/>
</g>
<g id="sp">
<path d="M5550 1410 l0 -320 555 0 555 0 0 320 0 320 -555 0 -555 0 0 -320z"/>
</g>

</g>

</g>
</svg>
